<svg xmlns="http://www.w3.org/2000/svg" width="177.659" height="160.851" viewBox="0 0 177.659 160.851">
  <g id="Sai_Logo" data-name="Sai Logo" transform="translate(0.681 0.991)">
    <g id="Group_1275" data-name="Group 1275" transform="translate(0 38.899)">
      <path id="Path_4586" data-name="Path 4586" d="M742.029,509.716c9.112,6.649,21.194,9.772,36.555,9.772,12.524,0,21.469-2,26.73-6.1a19.447,19.447,0,0,0,4.728-5.34c3.821-6.334,3.092-14.931,3.092-14.931-.362-5.965-2.527-10.516-5.5-13.3a19.323,19.323,0,0,0-6.735-4c-5.787-2.211-10.208-3.053-18.942-4.314a94.519,94.519,0,0,1-11.891-2.21,17.339,17.339,0,0,1-4-1.579,6.426,6.426,0,0,1-2.946-5.471c0-5.893,3.367-8.1,15.153-8.1.82,0,17.454-.048,17.454-.048,6.634,0,11.9-4,14.159-10.233a35.995,35.995,0,0,0,.921-4.084.629.629,0,0,0-.624-.741l-35.238.025c-19.938.691-28.984,7.583-28.984,23.606,0,8.313,2.315,13.68,8.1,17.153a41.406,41.406,0,0,0,9.681,3.893,122.927,122.927,0,0,0,13.891,2.631c6.84.948,11.682,2.1,14.418,3.262a6.129,6.129,0,0,1,4.1,6.1c0,3.472-1.157,5.893-3.578,7.366-2.42,1.368-7.261,2.105-14.521,2.105-6.687,0-11.542-1.259-17.492-3.078-9.6-2.934-13.84-.321-16.853,4.015l-1.816,2.929A.509.509,0,0,0,742.029,509.716Z" transform="translate(-741.823 -438.983)" fill="navy" stroke="#707070" stroke-width="1"/>
      <path id="Path_4587" data-name="Path 4587" d="M978.745,505.595c.355.878,1.283,3.105,2.4,5.254,4.251,8.208,9.2,8.557,20.082,8.557a.174.174,0,0,0,.159-.251l-31.211-79.687a.691.691,0,0,0-.647-.441H955.361a.63.63,0,0,0-.586.4l-31.311,79.729a.173.173,0,0,0,.159.251c11.226,0,15.83-.348,20.081-8.557,1.113-2.15,2.042-4.377,2.4-5.254a.624.624,0,0,1,.582-.389h31.477a.624.624,0,0,1,.582.389Zm-6.16-14.707H952.35a.339.339,0,0,1-.315-.462l10.11-25.711a.342.342,0,0,1,.636,0l10.113,25.717a.333.333,0,0,1-.31.456Z" transform="translate(-850.172 -438.982)" fill="navy" stroke="#707070" stroke-width="1"/>
      <path id="Path_4588" data-name="Path 4588" d="M1145.226,438.917c-4.519,0-7.035,3.026-7.035,7.213,0,0-.152,68.84-.15,72.925a.244.244,0,0,0,.241.241,19.273,19.273,0,0,0,5.543-.494,12.414,12.414,0,0,0,7.83-5.325,17.032,17.032,0,0,0,2.45-9.165V439.161a.244.244,0,0,0-.244-.244Z" transform="translate(-978.193 -438.917)" fill="navy" stroke="#707070" stroke-width="1"/>
    </g>
    <path id="Path_4589" data-name="Path 4589" d="M1132.515,378.528a2.7,2.7,0,1,0-.7-3.758A2.7,2.7,0,0,0,1132.515,378.528Z" transform="translate(-974.192 -361.051)" fill="navy" stroke="#707070" stroke-width="1"/>
    <g id="Group_1276" data-name="Group 1276" transform="translate(132.552)">
      <path id="Path_4590" data-name="Path 4590" d="M1132.5,378.526a2.7,2.7,0,1,0-.7-3.757A2.7,2.7,0,0,0,1132.5,378.526Z" transform="translate(-1106.741 -361.05)" fill="navy" stroke="#707070" stroke-width="1"/>
      <path id="Path_4591" data-name="Path 4591" d="M1088.845,366.21c2.948,4.575,2.741,6.977,1.993,8.935q.339-.414.657-.849a10.574,10.574,0,0,0,1.393-10.632c-1.3-3.214-4.672-7.571-7.164-11.388-.592-.9-1.118-1.717-1.557-2.394q-.437-.66-.823-1.275l-.426-.663.079.1a38.575,38.575,0,0,1-2.916-5.549c-4.355,5.766,1.993,14.186,1.993,14.186Z" transform="translate(-1075.256 -342.499)" fill="#ef7e19" stroke="#707070" stroke-width="1"/>
      <path id="Path_4592" data-name="Path 4592" d="M1078.114,394.422c.825,1.158,2.369,3.49,2.227,5.1a3.524,3.524,0,0,1-1.822,2.862,27.087,27.087,0,0,0,4.343-2.3,7.126,7.126,0,0,0,.625-7.8c-.811-1.54-1.678-2.714-3.812-5.932a67.145,67.145,0,0,1-5.3-8.746s-4.7,5.066.081,12C1074.452,389.611,1076.772,392.54,1078.114,394.422Z" transform="translate(-1071.528 -363.443)" fill="#098036" stroke="#707070" stroke-width="1"/>
      <path id="Path_4593" data-name="Path 4593" d="M1098.047,370.735c-.155.011-.21-.007-.619,0-2.038.035-9.013-1.007-19.391-14.738,0,0,1.184,1.85,2.806,4.331,2.493,3.817,5.862,8.174,7.164,11.388a10.573,10.573,0,0,1-1.393,10.631c-3.506,4.813-8.741,7.535-16.245,8.879a52.173,52.173,0,0,0,17.856-5.468,57.531,57.531,0,0,0,19.946-16.858s4.183-5.8,5.694-9.673C1113.859,359.23,1106.427,370.115,1098.047,370.735Z" transform="translate(-1070.369 -350.551)" fill="navy" stroke="#707070" stroke-width="1"/>
    </g>
    <g id="Group_1277" data-name="Group 1277" transform="translate(0.014 151.269)">
      <path id="Path_4594" data-name="Path 4594" d="M745.561,720.757c-1.352-.346-1.688-.513-1.688-1.027v-.022c0-.38.348-.682,1.006-.682a3.666,3.666,0,0,1,2.033.771l.893-1.3a4.528,4.528,0,0,0-2.9-.994,2.447,2.447,0,0,0-2.738,2.357v.022c0,1.554,1.017,1.99,2.593,2.392,1.307.334,1.579.558,1.579.994v.023c0,.459-.424.737-1.129.737a3.587,3.587,0,0,1-2.335-.95l-1.017,1.217a4.974,4.974,0,0,0,3.318,1.251c1.688,0,2.871-.871,2.871-2.425V723.1C748.042,721.738,747.149,721.169,745.561,720.757Z" transform="translate(-741.854 -717.479)" fill="navy" stroke="#707070" stroke-width="1"/>
      <path id="Path_4595" data-name="Path 4595" d="M764.108,717.78h-3.2V725.6h1.721v-2.346h1.308c1.754,0,3.159-.94,3.159-2.749v-.023a2.679,2.679,0,0,0-2.992-2.7Zm1.252,2.764A1.212,1.212,0,0,1,764,721.728h-1.363v-2.392h1.327c.86,0,1.4.414,1.4,1.185Z" transform="translate(-753.224 -717.643)" fill="navy" stroke="#707070" stroke-width="1"/>
      <path id="Path_4596" data-name="Path 4596" d="M782.731,717.448a4.047,4.047,0,0,0-4.168,4.047v.023a4.158,4.158,0,0,0,8.313-.023v-.022a4.008,4.008,0,0,0-4.145-4.025Zm2.346,4.068a2.339,2.339,0,0,1-2.346,2.436,2.377,2.377,0,0,1-2.369-2.458v-.022a2.34,2.34,0,0,1,2.347-2.436,2.377,2.377,0,0,1,2.369,2.459Z" transform="translate(-763.754 -717.446)" fill="navy" stroke="#707070" stroke-width="1"/>
      <path id="Path_4597" data-name="Path 4597" d="M809.5,720.384v-.018a2.455,2.455,0,0,0-.67-1.789,3.115,3.115,0,0,0-2.279-.789h-3.576V725.6h1.721v-2.5h1.352l1.678,2.5h2.012l-1.911-2.793A2.43,2.43,0,0,0,809.5,720.384Zm-1.743.09c0,.659-.481,1.105-1.319,1.105h-1.743v-2.245h1.71c.838,0,1.352.38,1.352,1.117Z" transform="translate(-778.316 -717.644)" fill="navy" stroke="#707070" stroke-width="1"/>
      <path id="Path_4598" data-name="Path 4598" d="M821.619,719.366H824V725.6h1.72v-6.235H828.1V717.78h-6.481Z" transform="translate(-789.439 -717.644)" fill="navy" stroke="#707070" stroke-width="1"/>
      <path id="Path_4599" data-name="Path 4599" d="M842.922,720.757c-1.352-.346-1.688-.513-1.688-1.028v-.022c0-.38.347-.682,1.006-.682a3.666,3.666,0,0,1,2.033.771l.893-1.3a4.525,4.525,0,0,0-2.907-1,2.447,2.447,0,0,0-2.738,2.357v.022c0,1.554,1.017,1.99,2.593,2.392,1.307.335,1.579.558,1.579.994v.023c0,.459-.425.737-1.129.737a3.588,3.588,0,0,1-2.335-.949l-1.017,1.217a4.973,4.973,0,0,0,3.318,1.251c1.688,0,2.871-.871,2.871-2.425V723.1C845.4,721.738,844.509,721.169,842.922,720.757Z" transform="translate(-799.935 -717.479)" fill="navy" stroke="#707070" stroke-width="1"/>
      <path id="Path_4600" data-name="Path 4600" d="M868.277,717.642l-3.356,7.878h1.756l.715-1.754H870.7l.716,1.754h1.8l-3.356-7.878Zm-.268,4.6,1.038-2.536,1.039,2.536Z" transform="translate(-815.274 -717.562)" fill="navy" stroke="#707070" stroke-width="1"/>
      <path id="Path_4601" data-name="Path 4601" d="M892.573,722.26c0,1.241-.638,1.875-1.687,1.875s-1.687-.659-1.687-1.934V717.78h-1.721v4.469c0,2.3,1.283,3.475,3.386,3.475s3.431-1.162,3.431-3.531V717.78h-1.721Z" transform="translate(-828.728 -717.644)" fill="navy" stroke="#707070" stroke-width="1"/>
      <path id="Path_4602" data-name="Path 4602" d="M907.344,719.366h2.38V725.6h1.722v-6.235h2.381V717.78h-6.481Z" transform="translate(-840.579 -717.644)" fill="navy" stroke="#707070" stroke-width="1"/>
      <path id="Path_4603" data-name="Path 4603" d="M931.575,720.876H928.4v-3.1H926.68V725.6H928.4v-3.14h3.173v3.14H933.3V717.78h-1.721Z" transform="translate(-852.115 -717.644)" fill="navy" stroke="#707070" stroke-width="1"/>
      <path id="Path_4604" data-name="Path 4604" d="M951.046,717.448a4.047,4.047,0,0,0-4.169,4.047v.023a4.158,4.158,0,0,0,8.313-.023v-.022a4.007,4.007,0,0,0-4.145-4.025Zm2.346,4.068a2.339,2.339,0,0,1-2.346,2.436,2.377,2.377,0,0,1-2.369-2.458v-.022a2.34,2.34,0,0,1,2.347-2.436,2.377,2.377,0,0,1,2.369,2.459Z" transform="translate(-864.166 -717.446)" fill="navy" stroke="#707070" stroke-width="1"/>
      <path id="Path_4605" data-name="Path 4605" d="M977.815,720.384v-.018a2.461,2.461,0,0,0-.669-1.789,3.119,3.119,0,0,0-2.28-.79H971.29V725.6h1.721v-2.5h1.352l1.678,2.5h2.012l-1.911-2.793A2.429,2.429,0,0,0,977.815,720.384Zm-1.742.09c0,.659-.481,1.105-1.319,1.105h-1.743v-2.245h1.71c.838,0,1.352.38,1.352,1.117Z" transform="translate(-878.727 -717.644)" fill="navy" stroke="#707070" stroke-width="1"/>
      <rect id="Rectangle_318" data-name="Rectangle 318" width="1.721" height="7.822" transform="translate(100.722 0.137)" fill="navy" stroke="#707070" stroke-width="1"/>
      <path id="Path_4606" data-name="Path 4606" d="M999.246,719.366h2.38V725.6h1.721v-6.235h2.381V717.78h-6.481Z" transform="translate(-895.405 -717.644)" fill="navy" stroke="#707070" stroke-width="1"/>
      <path id="Path_4607" data-name="Path 4607" d="M1020.469,720.92l-1.867-3.14h-2.012l3.006,4.738v3.08h1.721V722.48l3.006-4.7h-1.955Z" transform="translate(-905.752 -717.644)" fill="navy" stroke="#707070" stroke-width="1"/>
      <path id="Path_4608" data-name="Path 4608" d="M1050.045,717.448a4.047,4.047,0,0,0-4.168,4.047v.023a4.158,4.158,0,0,0,8.313-.023v-.022a4.008,4.008,0,0,0-4.145-4.025Zm2.346,4.068a2.339,2.339,0,0,1-2.346,2.436,2.377,2.377,0,0,1-2.369-2.458v-.022a2.34,2.34,0,0,1,2.347-2.436,2.376,2.376,0,0,1,2.369,2.459Z" transform="translate(-923.221 -717.446)" fill="navy" stroke="#707070" stroke-width="1"/>
      <path id="Path_4609" data-name="Path 4609" d="M1070.28,725.6H1072v-3.028h3.732V721H1072V719.34h4.235V717.78h-5.956Z" transform="translate(-937.783 -717.644)" fill="navy" stroke="#707070" stroke-width="1"/>
      <rect id="Rectangle_319" data-name="Rectangle 319" width="1.721" height="7.822" transform="translate(143.265 0.137)" fill="navy" stroke="#707070" stroke-width="1"/>
      <path id="Path_4610" data-name="Path 4610" d="M1111.331,722.6l-3.665-4.816h-1.587V725.6h1.7v-4.973l3.787,4.973h1.464V717.78h-1.7Z" transform="translate(-959.137 -717.644)" fill="navy" stroke="#707070" stroke-width="1"/>
      <path id="Path_4611" data-name="Path 4611" d="M1131.02,717.78h-3.051V725.6h3.051a3.916,3.916,0,0,0,4.157-3.911v-.023a3.9,3.9,0,0,0-4.156-3.884Zm2.358,3.933a2.229,2.229,0,0,1-2.358,2.335h-1.33v-4.715h1.33a2.246,2.246,0,0,1,2.358,2.358Z" transform="translate(-972.195 -717.643)" fill="navy" stroke="#707070" stroke-width="1"/>
      <rect id="Rectangle_320" data-name="Rectangle 320" width="1.721" height="7.822" transform="translate(164.593 0.137)" fill="navy" stroke="#707070" stroke-width="1"/>
      <path id="Path_4612" data-name="Path 4612" d="M1162.225,717.642h-1.586l-3.356,7.878h1.755l.715-1.754h3.307l.715,1.754h1.8Zm-1.855,4.6,1.038-2.536,1.039,2.536Z" transform="translate(-989.683 -717.562)" fill="navy" stroke="#707070" stroke-width="1"/>
    </g>
    <g id="Group_1278" data-name="Group 1278" transform="translate(20.217 127.514)">
      <path id="Path_4613" data-name="Path 4613" d="M825.954,663.014h-1.346a8.845,8.845,0,0,0-.429-1.33,5.724,5.724,0,0,0-.73-1.29,3.818,3.818,0,0,0-1.095-.981,2.941,2.941,0,0,0-1.541-.389,3.191,3.191,0,0,0-1.1.179,2.52,2.52,0,0,0-.835.494,2.137,2.137,0,0,0-.535.754,2.421,2.421,0,0,0-.187.958,3.1,3.1,0,0,0,.227,1.175,4.41,4.41,0,0,0,.2.429H797.823v1.363H799.3V668.3h-2.487v-2.952a2.52,2.52,0,0,0-.641-1.85,2.451,2.451,0,0,0-1.825-.648,2.683,2.683,0,0,0-.965.17,2.364,2.364,0,0,0-.771.471,2.1,2.1,0,0,0-.5.706,2.185,2.185,0,0,0-.179.888,2.571,2.571,0,0,0,.13.835,2.83,2.83,0,0,0,.332.681,2.321,2.321,0,0,0,.462.511,2.456,2.456,0,0,0,.5.325l.888-1.023a1.662,1.662,0,0,1-.5-.479,1.283,1.283,0,0,1-.227-.771.949.949,0,0,1,.227-.7.813.813,0,0,1,.6-.227q.73,0,.73.987v3.066h-.114a1.193,1.193,0,0,0-.77.284.994.994,0,0,0-.349.819,1.626,1.626,0,0,0,.162.723,1.831,1.831,0,0,0,.438.576,2.069,2.069,0,0,0,.633.381,2.007,2.007,0,0,0,.729.138,1.606,1.606,0,0,0,.665-.114,1.026,1.026,0,0,0,.341-.227v-1.2h2.481v3.652h1.752v-8.955h2.433v8.955h1.752v-8.955h4.493a4.037,4.037,0,0,1,.437.8,2.989,2.989,0,0,1,.211,1.176,1.71,1.71,0,0,1-.356,1.177,1.149,1.149,0,0,1-.888.395,1.007,1.007,0,0,1-.827-.454l-.308-.389a1.374,1.374,0,0,0-.819.227.72.72,0,0,0-.316.617,1.3,1.3,0,0,0,.106.487,3.409,3.409,0,0,0,.382.649l3.017,4.54,1.558-.941-2.547-3.341h.162a2.636,2.636,0,0,0,.965-.187,2.488,2.488,0,0,0,.844-.544,2.72,2.72,0,0,0,.592-.888,3.026,3.026,0,0,0,.227-1.209,3.376,3.376,0,0,0-.227-1.306,3.857,3.857,0,0,0-.437-.819h7.462v2h-2.514a3.268,3.268,0,0,0-2.231.729,2.752,2.752,0,0,0-.835,2.19,5.765,5.765,0,0,0,.462,2.3,11.026,11.026,0,0,0,1.111,2l1.541-.681a11.324,11.324,0,0,1-.973-1.785,4.378,4.378,0,0,1-.357-1.719,1.668,1.668,0,0,1,.395-1.168,1.643,1.643,0,0,1,1.273-.438h2.125v5.527h1.752V664.36h2.433v8.954H824.9V664.36h3.618a2.908,2.908,0,0,1,.395.592,1.563,1.563,0,0,1,.17.722,1.16,1.16,0,0,1-.5,1.054,3.191,3.191,0,0,1-1.589.356l-.39.016a4.693,4.693,0,0,0,.349,1.9,3.678,3.678,0,0,0,.916,1.3,3.611,3.611,0,0,0,1.29.738,4.7,4.7,0,0,0,1.468.235,3.982,3.982,0,0,0,1.339-.187,2.815,2.815,0,0,0,.738-.365v2.595h1.752v-8.954h1.382V663h-9.875Zm-3.86,0h-1.8a3.483,3.483,0,0,1-.279-.583,2.57,2.57,0,0,1-.146-.876,1.129,1.129,0,0,1,.276-.819,1.014,1.014,0,0,1,.762-.283,1.269,1.269,0,0,1,.771.244,2.457,2.457,0,0,1,.583.617,4.269,4.269,0,0,1,.429.827q.179.455.308.876Zm8.776,2.888a2.08,2.08,0,0,0-.179-.876,2.678,2.678,0,0,0-.406-.649H832.7V669.1a1.948,1.948,0,0,1-.746.527,3.017,3.017,0,0,1-1.25.235,2.494,2.494,0,0,1-1.614-.478,1.71,1.71,0,0,1-.674-1.144,3,3,0,0,0,1.76-.665,2.073,2.073,0,0,0,.687-1.671Z" transform="translate(-791.933 -658.837)" fill="navy" stroke="#707070" stroke-width="1"/>
      <path id="Path_4614" data-name="Path 4614" d="M924.152,662.745h-1.5l-.967-1.833a5.114,5.114,0,0,0-1.395-1.7,3.319,3.319,0,0,0-2.073-.633,4.285,4.285,0,0,0-.917.1,2.717,2.717,0,0,0-.738.26l.568,1.557a3.783,3.783,0,0,1,.56-.171,2.816,2.816,0,0,1,.641-.073,2.1,2.1,0,0,1,1.306.389,4.719,4.719,0,0,1,1.03,1.185l.61.925h-9.772v1.363h3a2.977,2.977,0,0,1,.348.819,4.014,4.014,0,0,1,.138,1.079,1.72,1.72,0,0,1-.317,1.144.953.953,0,0,1-.738.365q-.341,0-.5-.454l-.2-.454a1.086,1.086,0,0,0-.876.1.753.753,0,0,0-.356.681,2.146,2.146,0,0,0,.041.406q.04.211.073.341a6.13,6.13,0,0,0,.908,2.1,5.725,5.725,0,0,0,3.257,2.3,7.789,7.789,0,0,0,2.044.268,7.093,7.093,0,0,0,1.875-.2,5.111,5.111,0,0,0,1.144-.446v.908H923.1V664.11h9.636v1.768a2.486,2.486,0,0,0-.875-.113,2.526,2.526,0,0,0-1.031.21,2.117,2.117,0,0,0-.77.552,3.118,3.118,0,0,0-2.172-.795,3.5,3.5,0,0,0-1.119.179,2.8,2.8,0,0,0-.957.544,2.613,2.613,0,0,0-.673.924,3.2,3.2,0,0,0-.252,1.323,4.129,4.129,0,0,0,.283,1.541,4.994,4.994,0,0,0,.746,1.289,5.876,5.876,0,0,0,1.071,1.03,7.964,7.964,0,0,0,1.273.779l1.086-1.3a9.882,9.882,0,0,1-.973-.56,4.327,4.327,0,0,1-.86-.729,3.768,3.768,0,0,1-.608-.909,2.565,2.565,0,0,1-.235-1.111,1.52,1.52,0,0,1,.438-1.208,1.6,1.6,0,0,1,1.086-.381,1.754,1.754,0,0,1,1.217.422,4.609,4.609,0,0,0-.219.908,8.442,8.442,0,0,0-.09,1.3h1.736a4.989,4.989,0,0,1,.373-2,1.066,1.066,0,0,1,1.006-.625,1.573,1.573,0,0,1,.3.025,1.771,1.771,0,0,1,.219.056v5.84h1.753V664.11h1.382v-1.365Zm-2.806,5.922a1.429,1.429,0,0,1-.876.243,1.511,1.511,0,0,1-.9-.284,1.123,1.123,0,0,1-.395-.981,1.142,1.142,0,0,1,.381-.933,1.388,1.388,0,0,1,.916-.317,1.751,1.751,0,0,1,.876.211Zm0-3.244a1.573,1.573,0,0,0-.5-.17,3.569,3.569,0,0,0-.65-.057,3.076,3.076,0,0,0-1.006.162,2.407,2.407,0,0,0-.819.471,2.135,2.135,0,0,0-.544.754,2.562,2.562,0,0,0-.2,1.03,2.491,2.491,0,0,0,.219,1.079,2.255,2.255,0,0,0,.583.771,2.606,2.606,0,0,0,.827.471,2.89,2.89,0,0,0,.965.162,2.42,2.42,0,0,0,.691-.081,1.924,1.924,0,0,0,.43-.179v.844a3.115,3.115,0,0,1-1.127.5,6.706,6.706,0,0,1-1.825.227,5.956,5.956,0,0,1-1.435-.171,5,5,0,0,1-1.265-.494,3.945,3.945,0,0,1-1.006-.8,3.547,3.547,0,0,1-.673-1.111,1,1,0,0,0,.243.033,2.627,2.627,0,0,0,1.03-.2,2.237,2.237,0,0,0,.795-.56,2.518,2.518,0,0,0,.51-.876,3.4,3.4,0,0,0,.179-1.127,3.523,3.523,0,0,0-.179-1.152,3.886,3.886,0,0,0-.389-.844h5.143Z" transform="translate(-863.261 -658.574)" fill="navy" stroke="#707070" stroke-width="1"/>
      <path id="Path_4615" data-name="Path 4615" d="M1009.5,663.509a.5.5,0,0,1-.235-.166,10.22,10.22,0,0,0-3.033-2.453,5.115,5.115,0,0,0-.523-.241,8.8,8.8,0,0,0-2.27-.662,7.113,7.113,0,0,0-3.97.33,3.46,3.46,0,0,0-.817.479,2.146,2.146,0,0,0-.821,2.324c.028.115.069.225.122.389h-13.6v.018h-.022v1.358h.022v.013h.767v.269c0,.936-.007,1.875,0,2.807a2.468,2.468,0,0,0,1.765,2.566c.164.054.336.082.55.133l-2.725,2.2,1.459,1.232,3.54-3.724.027.009v3.455h1.777v-.079h0v-8.867h2.385v8.946h1.777v-8.946h2.389v8.946h1.777v-8.946h1.346V663.75a.526.526,0,0,0,0-.076v-.17h-1.447c-.078-.027-.167-.092-.177-.145a1.36,1.36,0,0,1,.431-1.439,2.5,2.5,0,0,1,.726-.406,5.384,5.384,0,0,1,2.932-.048,8.117,8.117,0,0,1,2.561,1.076c.15.1.3.209.442.323h.033a9.651,9.651,0,0,1,1.277,1.121.516.516,0,0,1,.155.395c0,1.77-.019,3.539.009,5.309a.768.768,0,0,1-.458.79c-.042.022-.082.045-.125.065a4.91,4.91,0,0,1-2.391.414,1.824,1.824,0,0,1-1.13-.384.79.79,0,0,1,.134-1.337,1.393,1.393,0,0,1,.557-.148c.521-.025,1.044-.023,1.566-.022.148,0,.211-.042.208-.2-.009-.32-.008-.64,0-.959,0-.15-.046-.2-.2-.2-.381,0-.764-.011-1.143-.045a1.777,1.777,0,0,1-1.723-2,.911.911,0,0,1,.592-.849.857.857,0,0,1,.922.132.91.91,0,0,1,.233.987,4.475,4.475,0,0,1-.256.584c.334.141.673.274,1,.428a.3.3,0,0,0,.4-.1,2.041,2.041,0,0,0,.034-2.545,2.5,2.5,0,0,0-1.749-.921,2.654,2.654,0,0,0-2.336.756,2.453,2.453,0,0,0,.748,3.843c.085.045.166.1.272.155-.164.075-.3.123-.417.193a1.612,1.612,0,0,0-.937,1.332,2.276,2.276,0,0,0,1.493,2.394,5.7,5.7,0,0,0,3.466.21,12.339,12.339,0,0,0,1.229-.4v1.9h.011v.079h1.777V664.9h6.47v1.777c0,.049-.014.1-.022.18-.16-.1-.281-.2-.414-.268a3.072,3.072,0,0,0-1.882-.314,2.733,2.733,0,0,0-1.223.43,2.665,2.665,0,0,0-1.2,2.349,2.952,2.952,0,0,0,3.035,3.091,2.437,2.437,0,0,0,1.325-.315c.114-.069.221-.149.38-.258v2.275h1.777v-5.018a1.543,1.543,0,0,1,.205-.481,1.5,1.5,0,0,1,1.6-.619,1.2,1.2,0,0,1,1.132,1.26,1.35,1.35,0,0,1-.951,1.528,5.414,5.414,0,0,1-.851.086c-.067.008-.176.055-.184.1-.064.351-.107.708-.159,1.062-.022.144.046.179.181.2a3.975,3.975,0,0,0,1.643-.081,2.609,2.609,0,0,0,1.881-1.594,3.12,3.12,0,0,0,.18-1.627,2.636,2.636,0,0,0-.829-1.651,3.143,3.143,0,0,0-3.751-.154.472.472,0,0,1-.1.055v-2.013h8.77a.233.233,0,0,1,.114.075,3.06,3.06,0,0,1,.508,2.509,1.2,1.2,0,0,1-1.2.929,1.052,1.052,0,0,1-.888-.569.494.494,0,0,0-.612-.225.815.815,0,0,0-.681,1.072,2.261,2.261,0,0,0,.263.57c1.018,1.55,2.046,3.093,3.067,4.639.079.119.144.135.262.061.329-.208.664-.407,1-.611.123-.075.243-.155.38-.244l-2.506-3.288.445-.062a2.529,2.529,0,0,0,1.664-.893,2.952,2.952,0,0,0,.577-2.577,9.734,9.734,0,0,0-.487-1.39h2.432v.281c.016,1.262-.006,2.527.062,3.786a2.182,2.182,0,0,0,1.346,1.979,3.661,3.661,0,0,0,2.172.253,2.524,2.524,0,0,0,2.259-2.6c.009-1.125.007-2.552,0-3.7h1.937v8.946h1.777v-8.946h1.346V663.5Zm-19.765,5.133a.494.494,0,0,1-.145.181,2.046,2.046,0,0,1-1.864.413,1.013,1.013,0,0,1-.828-.987c-.035-1.109-.011-2.22-.011-3.356h2.849Zm26.663.576a3.2,3.2,0,0,1-.138.717,1.371,1.371,0,0,1-1.473.79,1.552,1.552,0,1,1,.33-3.086,1.992,1.992,0,0,1,1.091.416.517.517,0,0,1,.19.243Zm18.993-.834a3.5,3.5,0,0,1-.141.846.76.76,0,0,1-.539.539c-.75.23-1.593.066-1.646-1.05-.056-1.178-.028-2.621-.024-3.823h2.354v.214c.006,1.094.016,2.185,0,3.278Z" transform="translate(-906.709 -659.334)" fill="navy" stroke="#707070" stroke-width="1"/>
    </g>
  </g>
</svg>
