<svg xmlns="http://www.w3.org/2000/svg" xmlns:xlink="http://www.w3.org/1999/xlink" width="1028" height="1359" viewBox="0 0 1028 1359">
  <defs>
    <clipPath id="clip-path">
      <path id="Path_11739" data-name="Path 11739" d="M20,0h988a20.167,20.167,0,0,1,20,20.329V1338.671A20.167,20.167,0,0,1,1008,1359H20a20.167,20.167,0,0,1-20-20.329V20.329A20.167,20.167,0,0,1,20,0Z" transform="translate(26 255)" fill="#9cc6ff" opacity="0.98"/>
    </clipPath>
  </defs>
  <g id="Bg" transform="translate(-26 -255)" opacity="0.29" clip-path="url(#clip-path)">
    <g id="Group_1051" data-name="Group 1051" transform="translate(22.812 225.5)">
      <path id="Path_11744" data-name="Path 11744" d="M643.391,0,567.159,149.976l76.233,67.79Z" transform="translate(390.984 0)" fill="#dee6ed"/>
      <path id="Path_11745" data-name="Path 11745" d="M542.85,377.287l117.3,72.114V128.9Z" transform="translate(374.227 88.862)" fill="#f0f4f6"/>
      <path id="Path_11746" data-name="Path 11746" d="M553.981,332.517,594.55,485.6l57.925-24.986v-142Z" transform="translate(381.901 219.646)" fill="#fff"/>
      <path id="Path_11747" data-name="Path 11747" d="M578,427.655,635.92,646.118V402.669Z" transform="translate(398.455 277.589)" fill="#dee6ed"/>
      <path id="Path_11748" data-name="Path 11748" d="M551.949,650.695,653.876,786.132V546.775Z" transform="translate(380.5 376.932)" fill="#f0f4f6"/>
      <path id="Path_11749" data-name="Path 11749" d="M598.164,719.045l23.852,14.046V688.459Z" transform="translate(412.359 474.605)" fill="#f8fafb"/>
      <path id="Path_11750" data-name="Path 11750" d="M615.154,717.025l-59.973,76.846,96.467,164.31v-243.3Z" transform="translate(382.728 492.818)" fill="#f0f4f6"/>
      <path id="Path_11751" data-name="Path 11751" d="M540.536,793.355,661.744,925.947l-96.465-164.31Z" transform="translate(372.632 525.052)" fill="#fff"/>
      <path id="Path_11752" data-name="Path 11752" d="M449.918,510.846l274.3,125.076L666.288,417.459Z" transform="translate(310.162 287.785)" fill="#f0f4f6"/>
      <path id="Path_11753" data-name="Path 11753" d="M517.012,227.774l38.852,146.552,4.8,2.961L677.96,128.9Z" transform="translate(356.415 88.863)" fill="#dee6ed"/>
      <path id="Path_11754" data-name="Path 11754" d="M556.038,133.288l18.786,16.688L651.057,0Z" transform="translate(383.318 0)" fill="#f0f4f6"/>
      <path id="Path_11755" data-name="Path 11755" d="M479.308,913H703.954L582.746,780.412Z" transform="translate(330.422 537.995)" fill="#dee6ed"/>
      <path id="Path_11756" data-name="Path 11756" d="M590.682,722.757l36.494-2.147-23.852-14.046Z" transform="translate(407.201 487.087)" fill="#fff"/>
      <path id="Path_11757" data-name="Path 11757" d="M507.779,684.349l152.694,89.963,23.852-30.586L582.4,608.289Z" transform="translate(350.05 419.338)" fill="#dee6ed"/>
      <path id="Path_11758" data-name="Path 11758" d="M622.287,701.734l101.927-103.92-274.3-125.076Z" transform="translate(310.162 325.893)" fill="#fff"/>
      <path id="Path_11759" data-name="Path 11759" d="M541.332,281.385l21.37,80.56,98.494-13.9L543.9,275.93Z" transform="translate(373.18 190.219)" fill="#fff"/>
      <path id="Path_11760" data-name="Path 11760" d="M556.3,124.878l94.583,31.689L574.646,88.776Z" transform="translate(383.496 61.2)" fill="#fff"/>
      <path id="Path_11761" data-name="Path 11761" d="M517.012,240.706,677.96,141.835l-94.583-31.689Z" transform="translate(356.415 75.931)" fill="#f0f4f6"/>
      <path id="Path_11762" data-name="Path 11762" d="M467.32,0,617.2,133.288,712.218,0Z" transform="translate(322.158 0)" fill="#dee6ed"/>
      <path id="Path_11763" data-name="Path 11763" d="M667.454,743.275,514.76,653.312l-17.108,17.441,55.587,94.693,101.575-5.979Z" transform="translate(343.068 450.376)" fill="#f0f4f6"/>
      <path id="Path_11764" data-name="Path 11764" d="M632.131,716.149l-101.575,5.979,41.6,70.866Z" transform="translate(365.752 493.694)" fill="#fff"/>
      <path id="Path_11765" data-name="Path 11765" d="M666.288,479.926,625.72,326.845l-63.656,9L449.918,573.313Z" transform="translate(310.162 225.318)" fill="#dee6ed"/>
      <path id="Path_11766" data-name="Path 11766" d="M568.832,131.686l18.35-36.1L568.4,78.9l-30.287,42.486Z" transform="translate(370.96 54.39)" fill="#dee6ed"/>
      <path id="Path_11767" data-name="Path 11767" d="M590.545,114.349l-30.721-10.3-53.208,74.638,17.564,66.225Z" transform="translate(349.247 71.728)" fill="#fff"/>
      <path id="Path_11768" data-name="Path 11768" d="M467.32,0l39.492,148.932,80.1,26.842L617.2,133.288Z" transform="translate(322.158 0)" fill="#fff"/>
      <path id="Path_11769" data-name="Path 11769" d="M577.207,822.273l24.743-31.718-41.6-70.868-73.006,4.294Z" transform="translate(335.96 496.134)" fill="#f8fafb"/>
      <path id="Path_11770" data-name="Path 11770" d="M579.957,359.719l-21.371-80.559L516.3,368.715Z" transform="translate(355.925 192.445)" fill="#f0f4f6"/>
      <path id="Path_11771" data-name="Path 11771" d="M631.522,701.734l-172.368-229-22.633,146.58,78.571,133.839,41.81,24.638Z" transform="translate(300.926 325.893)" fill="#f0f4f6"/>
      <path id="Path_11772" data-name="Path 11772" d="M612.708,304.264l-2.235-8.416-86.349-53.105-86.329,169.8L570.423,393.82Z" transform="translate(301.805 167.34)" fill="#dee6ed"/>
      <path id="Path_11773" data-name="Path 11773" d="M442.57,726.67l62.063,226.444L608.072,820.52,518.205,722.23Z" transform="translate(305.097 497.886)" fill="#fff"/>
      <path id="Path_11774" data-name="Path 11774" d="M575.245,333.98,536.395,187.429l-47.5,93.444Z" transform="translate(337.033 129.208)" fill="#f0f4f6"/>
      <path id="Path_11775" data-name="Path 11775" d="M570.8,115,490.7,88.157l26.893,101.484Z" transform="translate(338.273 60.773)" fill="#f0f4f6"/>
      <path id="Path_11776" data-name="Path 11776" d="M576.032,758.329l-55.587-94.693L464.589,720.6l38.437,42.02Z" transform="translate(320.276 457.493)" fill="#dee6ed"/>
      <path id="Path_11777" data-name="Path 11777" d="M535.154,214.453l-17.564-66.223L490.7,185.955Z" transform="translate(338.273 102.185)" fill="#f0f4f6"/>
      <path id="Path_11778" data-name="Path 11778" d="M560.192,199.058l-44.458-28.5-61.36,86.074L512.694,292.5Z" transform="translate(313.234 117.58)" fill="#c5d1db"/>
      <path id="Path_11779" data-name="Path 11779" d="M594.136,332.171,461.508,350.889,403.4,465.227l78.591,104.413Z" transform="translate(278.091 228.989)" fill="#f0f4f6"/>
      <path id="Path_11780" data-name="Path 11780" d="M507.731,680.807l17.108-17.441-41.809-24.638Z" transform="translate(332.989 440.322)" fill="#fff"/>
      <path id="Path_11781" data-name="Path 11781" d="M539.75,196.106,512.856,94.624,465.584,78.779l-7.033,120.2,54.3,34.852Z" transform="translate(316.114 54.308)" fill="#fff"/>
      <path id="Path_11782" data-name="Path 11782" d="M493.7,759.634l55.856-56.966-24.7-42.079-90.963-53.572L422.365,681.57v.031Z" transform="translate(291.168 418.462)" fill="#fff"/>
      <path id="Path_11783" data-name="Path 11783" d="M515.743,184.783l-54.3-34.853-7.075,120.927h.02Z" transform="translate(313.226 103.357)" fill="#f0f4f6"/>
      <path id="Path_11784" data-name="Path 11784" d="M470.493,0l-7.778,133.087,47.27,15.845Z" transform="translate(318.984 0)" fill="#f0f4f6"/>
      <path id="Path_11785" data-name="Path 11785" d="M563.184,257.379,504.865,221.51h-.02v.029l-122.469,171.8-1.242,47.36,95.722-13.523Z" transform="translate(262.744 152.703)" fill="#f0f4f6"/>
      <path id="Path_11786" data-name="Path 11786" d="M518.955,739.378l-38.437-42.021-39.038,39.786,1.841,6.675Z" transform="translate(304.345 480.739)" fill="#f0f4f6"/>
      <path id="Path_11787" data-name="Path 11787" d="M520.149,693.344,441.578,559.5l-12.392,80.271Z" transform="translate(295.87 385.707)" fill="#fff"/>
      <path id="Path_11788" data-name="Path 11788" d="M467.661,725.382,414.785,779.3,393.27,918.566,538.62,951.3,476.557,724.858Z" transform="translate(271.11 499.698)" fill="#fff"/>
      <path id="Path_11789" data-name="Path 11789" d="M390.281,872.256h150.4l-145.35-32.735Z" transform="translate(269.05 578.743)" fill="#f0f4f6"/>
      <path id="Path_11790" data-name="Path 11790" d="M418.459,108.042l74.767,25.045L501,0Z" transform="translate(288.475 0)" fill="#fff"/>
      <path id="Path_11791" data-name="Path 11791" d="M391.252,0l-2.379,91.3,49.98,16.745L521.4,0Z" transform="translate(268.079 0)" fill="#dee6ed"/>
      <path id="Path_11792" data-name="Path 11792" d="M493.7,729.2l-71.33-78.034,32.292,117.82Z" transform="translate(291.168 448.896)" fill="#dee6ed"/>
      <path id="Path_11793" data-name="Path 11793" d="M507.489,209.2,514.523,89,439.758,63.954l-52.195,68.313Z" transform="translate(267.176 44.088)" fill="#f8fafb"/>
      <path id="Path_11794" data-name="Path 11794" d="M501.756,302.249l7.075-120.927L388.905,104.391l-3.289,126.439Z" transform="translate(265.834 71.964)" fill="#dee6ed"/>
      <path id="Path_11795" data-name="Path 11795" d="M504.339,250.682v-.029L388.2,179.235l-6.33,243.246Z" transform="translate(263.251 123.56)" fill="#f8fafb"/>
      <path id="Path_11796" data-name="Path 11796" d="M476.662,661.925l22.633-146.58L420.7,410.931l-42.41,83.433Z" transform="translate(260.786 283.285)" fill="#fff"/>
      <path id="Path_11797" data-name="Path 11797" d="M462.7,768.986,430.41,651.166,410.695,778.823l44.954-2.64Z" transform="translate(283.122 448.896)" fill="#fff"/>
      <path id="Path_11798" data-name="Path 11798" d="M419.268,457.589,477.379,343.25l-95.722,13.523-1.282,49.13Z" transform="translate(262.221 236.628)" fill="#dee6ed"/>
      <path id="Path_11799" data-name="Path 11799" d="M406.005,779.087l52.877-53.92-44.954,2.642Z" transform="translate(279.889 499.911)" fill="#f8fafb"/>
      <path id="Path_11800" data-name="Path 11800" d="M517.952,708.149l12.391-80.269L431.975,460.318,300.423,537.164l44.789,69.212Z" transform="translate(207.104 317.331)" fill="#f0f4f6"/>
      <path id="Path_11801" data-name="Path 11801" d="M499.675,648.548,326.935,546.775,488.132,723.1h.02Z" transform="translate(225.381 376.932)" fill="#dee6ed"/>
      <path id="Path_11802" data-name="Path 11802" d="M451.537,778.836l19.715-127.659v-.029h-.02L351.45,678.862l21.225,104.616Z" transform="translate(242.281 448.884)" fill="#f8fafb"/>
      <path id="Path_11803" data-name="Path 11803" d="M488.132,723.1l-161.2-176.325,41.417,204.039Z" transform="translate(225.381 376.932)" fill="#fff"/>
      <path id="Path_11804" data-name="Path 11804" d="M439.758,70.787,389.776,54.042,387.563,139.1Z" transform="translate(267.176 37.255)" fill="#f0f4f6"/>
      <path id="Path_11805" data-name="Path 11805" d="M434.952,778.009l7.923-51.278-78.86,4.642,20,98.551Z" transform="translate(250.943 500.989)" fill="#dee6ed"/>
      <path id="Path_11806" data-name="Path 11806" d="M405.274,896.351l21.514-139.267L375.857,809l17.171,84.565Z" transform="translate(259.106 521.914)" fill="#f8fafb"/>
      <path id="Path_11807" data-name="Path 11807" d="M378.293,515.454l42.41-83.433L381.81,380.338Z" transform="translate(260.786 262.195)" fill="#f0f4f6"/>
      <path id="Path_11808" data-name="Path 11808" d="M393.22,873.393l5.048-32.735-12.248-2.786Z" transform="translate(266.112 577.607)" fill="#fff"/>
      <path id="Path_11809" data-name="Path 11809" d="M306.141,880.924H448.285l-7.2-35.521L359.1,826.947Z" transform="translate(211.046 570.075)" fill="#f0f4f6"/>
      <path id="Path_11810" data-name="Path 11810" d="M352.577,70.724,413.895,91.3,416.274,0Z" transform="translate(243.058 0)" fill="#f0f4f6"/>
      <path id="Path_11811" data-name="Path 11811" d="M227.634,0,438.71,70.724,502.406,0Z" transform="translate(156.925 0)" fill="#dee6ed"/>
      <path id="Path_11812" data-name="Path 11812" d="M427.2,147.5l2.213-85.058L368.093,41.863,330.07,84.087Z" transform="translate(227.542 28.859)" fill="#fff"/>
      <path id="Path_11813" data-name="Path 11813" d="M411.532,230.831l3.289-126.439-66.8,87.408Z" transform="translate(239.917 71.964)" fill="#fff"/>
      <path id="Path_11814" data-name="Path 11814" d="M458.458,130.266,361.331,66.857l-76.606,85.058,106.934,65.759Z" transform="translate(196.282 46.089)" fill="#dee6ed"/>
      <path id="Path_11815" data-name="Path 11815" d="M419.476,872.38,402.3,787.815,337.49,853.924Z" transform="translate(232.657 543.099)" fill="#fff"/>
      <path id="Path_11816" data-name="Path 11816" d="M452.569,438.408l6.33-243.246-63.51-39.031L279.312,308.051l136.7,181.635Z" transform="translate(192.551 107.632)" fill="#f0f4f6"/>
      <path id="Path_11817" data-name="Path 11817" d="M395.544,370.581l1.242-47.36L360.231,374.5l.723.958Z" transform="translate(248.334 222.82)" fill="#dee6ed"/>
      <path id="Path_11818" data-name="Path 11818" d="M393.966,400.386l1.282-49.13-34.588,4.876Z" transform="translate(248.63 242.146)" fill="#fff"/>
      <path id="Path_11819" data-name="Path 11819" d="M447.955,533.514,451.472,398.4l-33.308-44.257-1.573.232L277.242,549.852,316.4,610.358Z" transform="translate(191.124 244.135)" fill="#f8fafb"/>
      <path id="Path_11820" data-name="Path 11820" d="M389.434,894.139l64.814-66.107-20.006-98.553-172.1,10.128,48.782,136.829Z" transform="translate(180.714 502.883)" fill="#f0f4f6"/>
      <path id="Path_11821" data-name="Path 11821" d="M444.964,772.169,423.738,667.553,246.591,708.529,272.864,782.3Z" transform="translate(169.993 460.194)" fill="#fff"/>
      <path id="Path_11822" data-name="Path 11822" d="M427.158,427.694l-136.7-181.636L263.147,281.81l22.178,166.981L426.31,428.883Z" transform="translate(181.407 169.625)" fill="#f8fafb"/>
      <path id="Path_11823" data-name="Path 11823" d="M433.139,354.279,292.154,374.186l10.385,78.093-49.3,34.794,40.547,62.684Z" transform="translate(174.578 244.23)" fill="#fff"/>
      <path id="Path_11824" data-name="Path 11824" d="M227.634,0,400.685,112.947,438.71,70.724Z" transform="translate(156.925 0)" fill="#f8fafb"/>
      <path id="Path_11825" data-name="Path 11825" d="M423.738,750.814,382.322,546.775,246.591,791.79Z" transform="translate(169.993 376.932)" fill="#dee6ed"/>
      <path id="Path_11826" data-name="Path 11826" d="M300.517,334.885l116.077-151.92L309.66,117.206l-61.11,67.877,13.033,98.088Z" transform="translate(171.344 80.798)" fill="#f8fafb"/>
      <path id="Path_11827" data-name="Path 11827" d="M316.567,888.148l52.962-53.977-78.51-17.7Z" transform="translate(200.621 562.851)" fill="#dee6ed"/>
      <path id="Path_11828" data-name="Path 11828" d="M227.634,0,247.7,151.049,324.081,198l76.6-85.056Z" transform="translate(156.925 0)" fill="#f0f4f6"/>
      <path id="Path_11829" data-name="Path 11829" d="M270.591,791.79,406.322,546.775,211.777,626.811,270.571,791.79Z" transform="translate(145.994 376.932)" fill="#fff"/>
      <path id="Path_11830" data-name="Path 11830" d="M411.623,575.018l-44.789-69.212L225.849,588.134l-21.763,30.53,12.991,36.391Z" transform="translate(140.692 348.689)" fill="#dee6ed"/>
      <path id="Path_11831" data-name="Path 11831" d="M351.136,895.928l-25.548-71.68-84.715-19.066Z" transform="translate(166.051 555.071)" fill="#f0f4f6"/>
      <path id="Path_11832" data-name="Path 11832" d="M154.026,903.815H411.005L300.741,813.068l-85.729-19.326Z" transform="translate(106.182 547.185)" fill="#f0f4f6"/>
      <path id="Path_11833" data-name="Path 11833" d="M357.954,530.5l-39.161-60.507L216.969,612.826Z" transform="translate(149.573 323.998)" fill="#f0f4f6"/>
      <path id="Path_11834" data-name="Path 11834" d="M352.619,872.3,303.838,735.474l-69.408,4.092-32.769,59.143L267.9,853.237Z" transform="translate(139.02 507.017)" fill="#dee6ed"/>
      <path id="Path_11835" data-name="Path 11835" d="M254.78,204.244l61.111-67.877L239.513,89.412Z" transform="translate(165.114 61.638)" fill="#fff"/>
      <path id="Path_11836" data-name="Path 11836" d="M328.531,444.155l-10.385-78.093L215.536,380.544l63.7,98.406Z" transform="translate(148.585 252.354)" fill="#f8fafb"/>
      <path id="Path_11837" data-name="Path 11837" d="M267.891,302.912,295.2,267.16l-38.933-51.713Z" transform="translate(176.663 148.523)" fill="#fff"/>
      <path id="Path_11838" data-name="Path 11838" d="M348.288,495.568l-40.547-62.682L174.183,527.142l45.263,127.049L246.464,638.4Z" transform="translate(120.077 298.42)" fill="#f8fafb"/>
      <path id="Path_11839" data-name="Path 11839" d="M324.748,434.2,302.571,267.221,205.96,393.66l16.179,55.023Z" transform="translate(141.983 184.215)" fill="#fff"/>
      <path id="Path_11840" data-name="Path 11840" d="M317.741,327.935l-11.626-87.466L259.961,179.15l-63.118,70.082-.02-.029-12.868,78.789,37.176,126.382Z" transform="translate(126.813 123.501)" fill="#f0f4f6"/>
      <path id="Path_11841" data-name="Path 11841" d="M290.465,765.577l-26.273-73.768-43.133,77.86Z" transform="translate(152.393 476.914)" fill="#f8fafb"/>
      <path id="Path_11842" data-name="Path 11842" d="M228.945,194.153,275.1,255.472l-13.033-98.087Z" transform="translate(157.829 108.497)" fill="#dee6ed"/>
      <path id="Path_11843" data-name="Path 11843" d="M320.226,473.041l-63.7-98.406-65.269,9.227L166.787,415.9l-10.716,65.556,30.6,85.84Z" transform="translate(107.592 258.263)" fill="#fff"/>
      <path id="Path_11844" data-name="Path 11844" d="M279.388,214.452,264.121,99.62,223.45,74.6l-19.632,120.2,42.451,56.413Z" transform="translate(140.507 51.43)" fill="#f0f4f6"/>
      <path id="Path_11845" data-name="Path 11845" d="M295.406,769.668l43.133-77.86h-.02L113.211,705.795l84.572,69.619Z" transform="translate(78.045 476.914)" fill="#f0f4f6"/>
      <path id="Path_11846" data-name="Path 11846" d="M338.519,759.13,279.726,594.151l-55.07,22.636L113.211,773.118Z" transform="translate(78.045 409.592)" fill="#dee6ed"/>
      <path id="Path_11847" data-name="Path 11847" d="M190.126,808.107l85.729,19.326-66.242-54.528Z" transform="translate(131.068 532.82)" fill="#fff"/>
      <path id="Path_11848" data-name="Path 11848" d="M236.042,0l-20.6,126.036,40.672,25.013Z" transform="translate(148.518 0)" fill="#fff"/>
      <path id="Path_11849" data-name="Path 11849" d="M254.71,202.17l-42.451-56.415-20.688,126.47.022.029Z" transform="translate(132.064 100.48)" fill="#dee6ed"/>
      <path id="Path_11850" data-name="Path 11850" d="M181.958,91.24l56.56,34.8L259.122,0Z" transform="translate(125.438 0)" fill="#f0f4f6"/>
      <path id="Path_11851" data-name="Path 11851" d="M94.108,0,242.521,91.24,319.685,0Z" transform="translate(64.876 0)" fill="#dee6ed"/>
      <path id="Path_11852" data-name="Path 11852" d="M228.127,797.039,260.9,737.9l-97.624,5.747Z" transform="translate(112.555 508.686)" fill="#fff"/>
      <path id="Path_11853" data-name="Path 11853" d="M227.994,554.539l-27.018,15.787,5.256,14.741Z" transform="translate(138.548 382.285)" fill="#dee6ed"/>
      <path id="Path_11854" data-name="Path 11854" d="M242.17,397.087l-16.177-55.021L176.9,406.316Z" transform="translate(121.951 235.811)" fill="#f0f4f6"/>
      <path id="Path_11855" data-name="Path 11855" d="M236.1,209,255.73,88.8,199.17,54.008l-42.18,49.884Z" transform="translate(108.225 37.232)" fill="#fff"/>
      <path id="Path_11856" data-name="Path 11856" d="M234.249,609l-12.991-36.391-42.079,59.027Z" transform="translate(123.521 394.742)" fill="#fff"/>
      <path id="Path_11857" data-name="Path 11857" d="M234.029,393.637,196.854,267.255,165.243,460.673l19.695-2.786Z" transform="translate(113.914 184.238)" fill="#fff"/>
      <path id="Path_11858" data-name="Path 11858" d="M258.84,578.626l-5.254-14.741L131.26,635.331h-.02l-6.578,40.221,92.1-37.9Z" transform="translate(85.938 388.727)" fill="#fff"/>
      <path id="Path_11859" data-name="Path 11859" d="M249.943,188.648,170.835,83.536l-33.928,40.106,37.857,128.734,54.491,62.74Z" transform="translate(94.38 57.588)" fill="#f0f4f6"/>
      <path id="Path_11860" data-name="Path 11860" d="M270.935,794.694,206.08,741.3,109.2,746.985l-8.026,49.044L251.448,829.9Z" transform="translate(69.747 511.031)" fill="#f0f4f6"/>
      <path id="Path_11861" data-name="Path 11861" d="M250.9,615.728,205.636,488.679l-50.457,35.607L128.555,687.146l.02.029Z" transform="translate(88.623 336.882)" fill="#f0f4f6"/>
      <path id="Path_11862" data-name="Path 11862" d="M200.939,325.009l12.868-78.789-54.491-62.742Z" transform="translate(109.829 126.485)" fill="#dee6ed"/>
      <path id="Path_11863" data-name="Path 11863" d="M87.25,917.635H200.058l60.986-110.073L110.772,773.695Z" transform="translate(60.148 533.365)" fill="#dee6ed"/>
      <path id="Path_11864" data-name="Path 11864" d="M234.238,554.367l31.61-193.418L224.225,219.419l-76.481-88.076L65.159,218.287l122.14,342.7Z" transform="translate(44.919 90.544)" fill="#f0f4f6"/>
      <path id="Path_11865" data-name="Path 11865" d="M94.108,0,200.339,141.125,242.521,91.24Z" transform="translate(64.876 0)" fill="#f0f4f6"/>
      <path id="Path_11866" data-name="Path 11866" d="M224.655,607.55l-92.1,37.9L113.212,763.882Z" transform="translate(78.045 418.829)" fill="#fff"/>
      <path id="Path_11867" data-name="Path 11867" d="M186.888,380.1l-19.695,2.786-4.779,29.253Z" transform="translate(111.964 262.029)" fill="#f0f4f6"/>
      <path id="Path_11868" data-name="Path 11868" d="M144.315,559.315l50.457-35.607-30.6-85.842Z" transform="translate(99.487 301.853)" fill="#fff"/>
      <path id="Path_11869" data-name="Path 11869" d="M179.619,411l4.779-29.251-46.941,6.616,18.909,53.048Z" transform="translate(94.76 263.166)" fill="#fff"/>
      <path id="Path_11870" data-name="Path 11870" d="M202.8,769.707l-84.57-69.619-12.309,75.307Z" transform="translate(73.023 482.622)" fill="#f8fafb"/>
      <path id="Path_11871" data-name="Path 11871" d="M171.9,399.061,148.65,429.474l12.537,35.144Z" transform="translate(102.476 275.102)" fill="#dee6ed"/>
      <path id="Path_11872" data-name="Path 11872" d="M114.044,147.934l76.481,88.076L152.668,107.277Z" transform="translate(78.619 73.954)" fill="#dee6ed"/>
      <path id="Path_11873" data-name="Path 11873" d="M104.1,0,79.61,105.4l96.8,75.827,33.928-40.1Z" transform="translate(54.881 0)" fill="#dee6ed"/>
      <path id="Path_11874" data-name="Path 11874" d="M194.24,573.656,214.1,452.207l-12.537-35.142L71.894,586.772l32.252,50.467Z" transform="translate(49.562 287.513)" fill="#f0f4f6"/>
      <path id="Path_11875" data-name="Path 11875" d="M0,418.455,121.458,608.42,251.125,438.711l-18.907-53.048Z" transform="translate(0 265.866)" fill="#dee6ed"/>
      <path id="Path_11876" data-name="Path 11876" d="M154.455,672.617l26.625-162.861L90.985,573.339Z" transform="translate(62.723 351.412)" fill="#fff"/>
      <path id="Path_11877" data-name="Path 11877" d="M212.159,525.5,90.021,182.809,59.8,214.615,29.1,346.683Z" transform="translate(20.058 126.023)" fill="#fff"/>
      <path id="Path_11878" data-name="Path 11878" d="M0,491.426l232.218-32.792L49.154,279.812Z" transform="translate(0 192.895)" fill="#f8fafb"/>
      <path id="Path_11879" data-name="Path 11879" d="M180.1,138.22l-96.8-75.829-9.062,39.031,67.234,77.454Z" transform="translate(51.183 43.01)" fill="#fff"/>
      <path id="Path_11880" data-name="Path 11880" d="M128.555,606.188h.022l-.022-.029Z" transform="translate(88.623 417.87)" fill="#dee6ed"/>
      <path id="Path_11881" data-name="Path 11881" d="M193.076,646.7v-.029l-63.47-99.278L34.961,614.2,56.539,726.446Z" transform="translate(24.101 377.358)" fill="#f0f4f6"/>
      <path id="Path_11882" data-name="Path 11882" d="M177.692,646.4l6.578-40.222L47.734,685.923l2.482,12.914Z" transform="translate(32.907 417.881)" fill="#dee6ed"/>
      <path id="Path_11883" data-name="Path 11883" d="M157.337,748.415l19.343-118.43L49.2,682.423l27.949,145.3,24.68-1.451Z" transform="translate(33.92 434.295)" fill="#fff"/>
      <path id="Path_11884" data-name="Path 11884" d="M153.391,162.95,86.158,85.5l-29.191,125.6,13.839,38.8Z" transform="translate(39.272 58.938)" fill="#f0f4f6"/>
      <path id="Path_11885" data-name="Path 11885" d="M123.552,775.395l12.309-75.307-55.5,77.862Z" transform="translate(55.396 482.622)" fill="#f8fafb"/>
      <path id="Path_11886" data-name="Path 11886" d="M123.545,793.709l8.026-49.044-43.2,2.554L68.723,774.788l1.3,6.877Z" transform="translate(47.376 513.352)" fill="#fff"/>
      <path id="Path_11887" data-name="Path 11887" d="M99.491,922.549l23.521-143.94L69.494,766.566Z" transform="translate(47.908 528.45)" fill="#f0f4f6"/>
      <path id="Path_11888" data-name="Path 11888" d="M0,0,134.489,105.4,158.984,0Z" transform="translate(0 0)" fill="#f0f4f6"/>
      <path id="Path_11889" data-name="Path 11889" d="M37.19,634.79l94.645-66.8L99.584,517.521,31.728,606.351Z" transform="translate(21.873 356.765)" fill="#fff"/>
      <path id="Path_11890" data-name="Path 11890" d="M0,923.046H147.4l-30-155.983-5.337-1.218Z" transform="translate(0 527.953)" fill="#c5d1db"/>
      <path id="Path_11891" data-name="Path 11891" d="M90.427,746.176l-24.68,1.451,5.028,26.118Z" transform="translate(45.325 514.394)" fill="#f0f4f6"/>
      <path id="Path_11892" data-name="Path 11892" d="M0,0,125.428,144.433l9.062-39.031Z" transform="translate(0 0)" fill="#f0f4f6"/>
      <path id="Path_11893" data-name="Path 11893" d="M0,0,96.239,270.031l29.189-125.6Z" transform="translate(0 0)" fill="#dee6ed"/>
      <path id="Path_11894" data-name="Path 11894" d="M53.6,683.869l67.855-88.831L0,405.073Z" transform="translate(0 279.247)" fill="#f8fafb"/>
      <path id="Path_11895" data-name="Path 11895" d="M0,753.566l112.065,25.248,4.034-5.659-5.028-26.119Z" transform="translate(0 514.986)" fill="#dee6ed"/>
      <path id="Path_11896" data-name="Path 11896" d="M0,933.348l112.065-157.2L0,750.9Z" transform="translate(0 517.651)" fill="#f0f4f6"/>
      <path id="Path_11897" data-name="Path 11897" d="M0,695.211V812.859l111.071-6.529-27.949-145.3Z" transform="translate(0 455.693)" fill="#dee6ed"/>
      <path id="Path_11898" data-name="Path 11898" d="M77.493,198.641l-13.839-38.8L47.268,230.447Z" transform="translate(32.586 110.19)" fill="#dee6ed"/>
      <path id="Path_11899" data-name="Path 11899" d="M0,0V424.68l79.853-84.043,16.385-70.606Z" transform="translate(0 0)" fill="#f0f4f6"/>
      <path id="Path_11900" data-name="Path 11900" d="M0,700.479l83.122-34.186-2.483-12.912Z" transform="translate(0 450.424)" fill="#f8fafb"/>
      <path id="Path_11901" data-name="Path 11901" d="M0,628.638V746.284l80.639-47.1L59.062,586.937Z" transform="translate(0 404.619)" fill="#dee6ed"/>
      <path id="Path_11902" data-name="Path 11902" d="M0,285.677,49.154,333.7l30.7-132.068Z" transform="translate(0 139.002)" fill="#dee6ed"/>
      <path id="Path_11903" data-name="Path 11903" d="M0,640.243l59.062-41.7L53.6,570.1Z" transform="translate(0 393.013)" fill="#f8fafb"/>
      <path id="Path_11904" data-name="Path 11904" d="M0,754.009l53.6-70.141L0,405.074Z" transform="translate(0 279.247)" fill="#dee6ed"/>
      <path id="Path_11905" data-name="Path 11905" d="M0,511.024,49.154,299.41,0,251.383Z" transform="translate(0 173.297)" fill="#f0f4f6"/>
    </g>
  </g>
</svg>
